<mxfile host="Electron" modified="2024-01-07T15:11:35.169Z" agent="Mozilla/5.0 (X11; Linux x86_64) AppleWebKit/537.36 (KHTML, like Gecko) draw.io/22.1.16 Chrome/120.0.6099.109 Electron/28.1.0 Safari/537.36" etag="vUDrfonbdc7jsv3UhxDa" version="22.1.16" type="device">
  <diagram id="C5RBs43oDa-KdzZeNtuy" name="Page-1">
    <mxGraphModel dx="1364" dy="963" grid="1" gridSize="10" guides="1" tooltips="1" connect="1" arrows="1" fold="1" page="1" pageScale="1" pageWidth="827" pageHeight="1169" math="0" shadow="0">
      <root>
        <mxCell id="WIyWlLk6GJQsqaUBKTNV-0" />
        <mxCell id="WIyWlLk6GJQsqaUBKTNV-1" parent="WIyWlLk6GJQsqaUBKTNV-0" />
        <mxCell id="GTPMjlfhMLePoCv8_ElG-10" value="" style="edgeStyle=orthogonalEdgeStyle;rounded=0;orthogonalLoop=1;jettySize=auto;html=1;" edge="1" parent="WIyWlLk6GJQsqaUBKTNV-1" source="WIyWlLk6GJQsqaUBKTNV-3" target="GTPMjlfhMLePoCv8_ElG-8">
          <mxGeometry relative="1" as="geometry" />
        </mxCell>
        <mxCell id="WIyWlLk6GJQsqaUBKTNV-3" value="카페에 입장" style="rounded=1;whiteSpace=wrap;html=1;fontSize=12;glass=0;strokeWidth=1;shadow=0;" parent="WIyWlLk6GJQsqaUBKTNV-1" vertex="1">
          <mxGeometry x="160" y="80" width="120" height="40" as="geometry" />
        </mxCell>
        <mxCell id="WIyWlLk6GJQsqaUBKTNV-11" value="카페 퇴장" style="rounded=1;whiteSpace=wrap;html=1;fontSize=12;glass=0;strokeWidth=1;shadow=0;" parent="WIyWlLk6GJQsqaUBKTNV-1" vertex="1">
          <mxGeometry x="160" y="720" width="120" height="40" as="geometry" />
        </mxCell>
        <mxCell id="GTPMjlfhMLePoCv8_ElG-19" value="" style="edgeStyle=orthogonalEdgeStyle;rounded=0;orthogonalLoop=1;jettySize=auto;html=1;" edge="1" parent="WIyWlLk6GJQsqaUBKTNV-1" target="GTPMjlfhMLePoCv8_ElG-14">
          <mxGeometry relative="1" as="geometry">
            <mxPoint x="220" y="360" as="sourcePoint" />
          </mxGeometry>
        </mxCell>
        <mxCell id="GTPMjlfhMLePoCv8_ElG-31" value="YES" style="edgeLabel;html=1;align=center;verticalAlign=middle;resizable=0;points=[];" vertex="1" connectable="0" parent="GTPMjlfhMLePoCv8_ElG-19">
          <mxGeometry x="-0.2126" y="-2" relative="1" as="geometry">
            <mxPoint x="22" as="offset" />
          </mxGeometry>
        </mxCell>
        <mxCell id="GTPMjlfhMLePoCv8_ElG-9" value="" style="edgeStyle=orthogonalEdgeStyle;rounded=0;orthogonalLoop=1;jettySize=auto;html=1;" edge="1" parent="WIyWlLk6GJQsqaUBKTNV-1" source="GTPMjlfhMLePoCv8_ElG-8">
          <mxGeometry relative="1" as="geometry">
            <mxPoint x="220" y="240" as="targetPoint" />
          </mxGeometry>
        </mxCell>
        <mxCell id="GTPMjlfhMLePoCv8_ElG-8" value="메뉴 선택" style="rounded=0;whiteSpace=wrap;html=1;" vertex="1" parent="WIyWlLk6GJQsqaUBKTNV-1">
          <mxGeometry x="160" y="160" width="120" height="40" as="geometry" />
        </mxCell>
        <mxCell id="GTPMjlfhMLePoCv8_ElG-21" value="" style="edgeStyle=orthogonalEdgeStyle;rounded=0;orthogonalLoop=1;jettySize=auto;html=1;" edge="1" parent="WIyWlLk6GJQsqaUBKTNV-1" source="GTPMjlfhMLePoCv8_ElG-13" target="GTPMjlfhMLePoCv8_ElG-20">
          <mxGeometry relative="1" as="geometry" />
        </mxCell>
        <mxCell id="GTPMjlfhMLePoCv8_ElG-22" value="NO" style="edgeLabel;html=1;align=center;verticalAlign=middle;resizable=0;points=[];" vertex="1" connectable="0" parent="GTPMjlfhMLePoCv8_ElG-21">
          <mxGeometry x="-0.5" y="1" relative="1" as="geometry">
            <mxPoint x="10" y="-9" as="offset" />
          </mxGeometry>
        </mxCell>
        <mxCell id="GTPMjlfhMLePoCv8_ElG-24" value="" style="edgeStyle=orthogonalEdgeStyle;rounded=0;orthogonalLoop=1;jettySize=auto;html=1;" edge="1" parent="WIyWlLk6GJQsqaUBKTNV-1" source="GTPMjlfhMLePoCv8_ElG-13" target="GTPMjlfhMLePoCv8_ElG-23">
          <mxGeometry relative="1" as="geometry" />
        </mxCell>
        <mxCell id="GTPMjlfhMLePoCv8_ElG-25" value="YES" style="edgeLabel;html=1;align=center;verticalAlign=middle;resizable=0;points=[];" vertex="1" connectable="0" parent="GTPMjlfhMLePoCv8_ElG-24">
          <mxGeometry x="-0.3" y="2" relative="1" as="geometry">
            <mxPoint x="18" y="6" as="offset" />
          </mxGeometry>
        </mxCell>
        <mxCell id="GTPMjlfhMLePoCv8_ElG-13" value="진동벨이 울리는가?" style="rhombus;whiteSpace=wrap;html=1;" vertex="1" parent="WIyWlLk6GJQsqaUBKTNV-1">
          <mxGeometry x="160" y="480" width="120" height="40" as="geometry" />
        </mxCell>
        <mxCell id="GTPMjlfhMLePoCv8_ElG-18" value="" style="edgeStyle=orthogonalEdgeStyle;rounded=0;orthogonalLoop=1;jettySize=auto;html=1;" edge="1" parent="WIyWlLk6GJQsqaUBKTNV-1" source="GTPMjlfhMLePoCv8_ElG-14" target="GTPMjlfhMLePoCv8_ElG-13">
          <mxGeometry relative="1" as="geometry" />
        </mxCell>
        <mxCell id="GTPMjlfhMLePoCv8_ElG-14" value="진동벨을 받는다" style="rounded=0;whiteSpace=wrap;html=1;" vertex="1" parent="WIyWlLk6GJQsqaUBKTNV-1">
          <mxGeometry x="160" y="400" width="120" height="40" as="geometry" />
        </mxCell>
        <mxCell id="GTPMjlfhMLePoCv8_ElG-16" value="" style="edgeStyle=orthogonalEdgeStyle;rounded=0;orthogonalLoop=1;jettySize=auto;html=1;" edge="1" parent="WIyWlLk6GJQsqaUBKTNV-1" target="WIyWlLk6GJQsqaUBKTNV-11">
          <mxGeometry relative="1" as="geometry">
            <mxPoint x="220" y="680" as="sourcePoint" />
          </mxGeometry>
        </mxCell>
        <mxCell id="GTPMjlfhMLePoCv8_ElG-20" value="대기한다" style="rounded=0;whiteSpace=wrap;html=1;" vertex="1" parent="WIyWlLk6GJQsqaUBKTNV-1">
          <mxGeometry x="320" y="480" width="120" height="40" as="geometry" />
        </mxCell>
        <mxCell id="GTPMjlfhMLePoCv8_ElG-29" value="" style="edgeStyle=orthogonalEdgeStyle;rounded=0;orthogonalLoop=1;jettySize=auto;html=1;" edge="1" parent="WIyWlLk6GJQsqaUBKTNV-1" source="GTPMjlfhMLePoCv8_ElG-23" target="GTPMjlfhMLePoCv8_ElG-26">
          <mxGeometry relative="1" as="geometry" />
        </mxCell>
        <mxCell id="GTPMjlfhMLePoCv8_ElG-23" value="진동벨을 반납한다" style="rounded=0;whiteSpace=wrap;html=1;" vertex="1" parent="WIyWlLk6GJQsqaUBKTNV-1">
          <mxGeometry x="160" y="560" width="120" height="40" as="geometry" />
        </mxCell>
        <mxCell id="GTPMjlfhMLePoCv8_ElG-26" value="커피를 받는다" style="rounded=0;whiteSpace=wrap;html=1;" vertex="1" parent="WIyWlLk6GJQsqaUBKTNV-1">
          <mxGeometry x="160" y="640" width="120" height="40" as="geometry" />
        </mxCell>
        <mxCell id="GTPMjlfhMLePoCv8_ElG-33" value="" style="edgeStyle=orthogonalEdgeStyle;rounded=0;orthogonalLoop=1;jettySize=auto;html=1;entryX=1;entryY=0.5;entryDx=0;entryDy=0;" edge="1" parent="WIyWlLk6GJQsqaUBKTNV-1" source="GTPMjlfhMLePoCv8_ElG-30" target="GTPMjlfhMLePoCv8_ElG-8">
          <mxGeometry relative="1" as="geometry">
            <mxPoint x="320" y="260" as="targetPoint" />
            <Array as="points">
              <mxPoint x="320" y="340" />
              <mxPoint x="320" y="180" />
            </Array>
          </mxGeometry>
        </mxCell>
        <mxCell id="GTPMjlfhMLePoCv8_ElG-34" value="NO" style="edgeLabel;html=1;align=center;verticalAlign=middle;resizable=0;points=[];" vertex="1" connectable="0" parent="GTPMjlfhMLePoCv8_ElG-33">
          <mxGeometry x="-0.15" y="-3" relative="1" as="geometry">
            <mxPoint x="17" y="-15" as="offset" />
          </mxGeometry>
        </mxCell>
        <mxCell id="GTPMjlfhMLePoCv8_ElG-30" value="계산" style="rhombus;whiteSpace=wrap;html=1;" vertex="1" parent="WIyWlLk6GJQsqaUBKTNV-1">
          <mxGeometry x="160" y="320" width="120" height="40" as="geometry" />
        </mxCell>
        <mxCell id="GTPMjlfhMLePoCv8_ElG-36" value="" style="edgeStyle=orthogonalEdgeStyle;rounded=0;orthogonalLoop=1;jettySize=auto;html=1;" edge="1" parent="WIyWlLk6GJQsqaUBKTNV-1" source="GTPMjlfhMLePoCv8_ElG-35" target="GTPMjlfhMLePoCv8_ElG-30">
          <mxGeometry relative="1" as="geometry" />
        </mxCell>
        <mxCell id="GTPMjlfhMLePoCv8_ElG-35" value="주문" style="rounded=0;whiteSpace=wrap;html=1;" vertex="1" parent="WIyWlLk6GJQsqaUBKTNV-1">
          <mxGeometry x="160" y="240" width="120" height="40" as="geometry" />
        </mxCell>
      </root>
    </mxGraphModel>
  </diagram>
</mxfile>
